<svg xmlns="http://www.w3.org/2000/svg" xml:space="preserve" style="clip-rule:evenodd;stroke-linejoin:round;stroke-miterlimit:2;fill:black;" viewBox="0 0 1772 1772"><path d="M1191.2 1536.03c1.27-.09 2.51-57 3.49-85.5 1.48-43.15 3.38-119.11 5.39-173.37 1.89-50.75 6.8-107.99 6.71-152.19-.08-37.76-5.5-75.32-7.25-113.04-2.7-58.337-4.55-166.762-8.98-236.995-3.9-61.626-14.32-146.134-17.64-184.405-1.3-15.038-2.23-45.227-2.23-45.227l-16.14 2.438-24.91-29.533s-34.46-73.963-42.74-93.563c-3.24-7.682-4.17-18.516-6.93-24.036-1.97-3.944-5.91-6.7-9.62-9.082-4.55-2.924-11.29-7.768-17.71-8.463-6.42-.694-14.82.534-20.82 4.295-7.99 4.999-27.09 25.698-27.09 25.698l-4.36-7.387-43.227 26.229h-12.698s-16.27 10.919-24.112 16.783c-9.03 6.752-21.664 16.072-30.067 23.728-7.424 6.764-15.705 13.311-20.354 22.212-5.674 10.863-10.23 32.339-13.691 42.965-2.267 6.96-5.383 13.666-7.074 20.788-1.786 7.519-4.351 17.674-3.639 24.327.62 5.796 7.484 10.69 7.912 15.595.428 4.904-5.367 8.89-5.343 13.833.078 15.992 5.328 62.646 5.811 82.12.288 11.611-1.536 27.108-2.912 34.723-.724 4.002-6.164 6.984-5.345 10.967 1.249 6.077 11.008 16.16 12.842 25.498 5.889 29.992 17.058 102.709 22.495 154.45 5.452 51.889 5.973 104.652 10.219 156.882 4.783 58.83 18.315 155.47 18.478 196.1.069 16.93-16.54 30.78-17.495 47.68-2.172 38.42 1.741 148.23 4.465 182.84.72 9.14 2.76 23.81 11.879 24.82 49.093 5.44 233.376 11.23 282.686 7.82ZM605.483 122.443l10.125 17.388 1.346 7.107 32.543-22.302s8.523 9.351 13.436 11.552c4.906 2.199 12.191.523 16.043 1.655 2.796.822 4.205 4.626 7.073 5.138 4.086.73 11.741-1.702 17.445-.76 5.703.942 13.362 1.855 16.778 6.413 3.417 4.559 3.575 13.851 3.721 20.938.242 11.723-3.281 40.599-2.266 49.4.344 2.988 8.129.407 8.356 3.407.256 3.389-5.024 11.116-6.82 16.928-2.117 6.851-6.375 17.662-5.883 24.175.435 5.757 8.28 10.295 8.836 14.898.553 4.587-5.397 8.102-5.505 12.721-.146 6.261 2.082 19.282 4.627 24.842 1.892 4.132 7.861 5.44 10.646 8.518 2.606 2.881 5.255 6.152 6.063 9.951 1.084 5.097 2.926 15.117.441 20.635-2.486 5.518-14.219 5.977-15.355 12.473-2.618 14.979.69 51.622-.357 77.402-2.186 53.844-11.196 197.8-12.758 245.663-.453 13.878 3.196 27.635 3.383 41.519.624 46.31.715 192.088.362 236.341-.078 9.76.022 19.742-2.48 29.176-2.565 9.679-12.13 18.369-12.914 28.889-1.653 22.17 3.094 72.7 2.996 104.17-.088 28.24-2.459 64.38-3.584 84.64-.684 12.34-2.634 26.42-3.161 36.94-.437 8.72-2.894 17.95 0 26.19 3.418 9.72 12.704 22.13 20.51 32.18 8.454 10.88 25.474 18.92 30.214 33.08 6.423 19.2 6.259 57.37 8.327 82.09 1.844 22.05 3.901 51.31 4.079 66.27.093 7.89-1.702 15.7-3.015 23.48-1.52 9-4.181 20.33-6.103 30.53-2.365 12.56 7.062 43.99-8.087 44.79-81.099 4.29-478.512-19-478.512-19l-.687-50.7-8.146-25.11 3.886-29.46-14.592-13.65s-.953-34.41-3.074-45.63c-1.471-7.77-9.22-13.79-9.655-21.69-.464-8.43 6.392-19.02 6.871-28.91.825-17.04-1.921-73.33-1.921-73.33l-8.98-13.34s-3.419-93.82-5.398-114.17c-.331-3.39-6.068-4.54-6.48-7.93-1.553-12.78-.81-45.89-2.836-68.73-5.938-66.9-26.905-261.1-32.79-332.721-2.649-32.236-3.488-72.725-2.523-97.001.653-16.441-.266-34.616 8.312-48.657 10.882-17.814 43.428-43.761 56.98-58.225 8.551-9.127 20.252-19.845 24.33-28.561 3.353-7.168-3.57-16.749.137-23.741 9.525-17.969 35.811-57.674 57.013-84.077 28.108-35.004 90.136-98.835 111.64-125.945 8.414-10.609 17.322-29.193 17.381-36.716.05-6.332-20.699-3.265-17.026-8.423 6.174-8.671 41.102-30.23 54.074-43.605 10.135-10.45 17.623-31.132 23.757-36.645 3.352-3.013 9.259 6.013 13.044 3.564 7.466-4.831 23.689-27.928 31.754-32.552 5.007-2.871 11.843 5.207 16.636 4.807 4.685-.392 7.617-5.866 12.122-7.21 4.624-1.38 15.621-1.069 15.621-1.069ZM1451.7 559.612c12.21-5.842 46.13-28.156 57.03-33.092 2.77-1.251 5.88 1.811 8.42 3.479 3.52 2.316 8.89 8.321 12.72 10.417 3.06 1.678 8.69-.96 10.26 2.161 3.45 6.843 6.83 25.972 10.44 38.902 4.88 17.414 14.99 51.192 18.8 65.579 1.8 6.811 3.81 13.699 4.09 20.74.95 24.083.83 92.971 1.62 123.757.52 20.34 3.35 43.909 3.1 60.96-.21 13.867-4.85 27.479-4.63 41.345.27 17.299 5.26 47.52 6.27 62.444.61 9.012-1.45 18.156-.17 27.098 1.63 11.378 9.21 27.068 9.94 41.168.82 15.74-4.95 35.4-5.06 53.22-.16 27.85 3.26 79.35 4.06 113.9.73 31.11.69 62.23.78 93.35.11 36.64-.19 99.02-.12 126.51.04 12.82 6.94 27.55.56 38.45-6.38 10.9-23.09 26.22-38.83 26.95-35.31 1.64-173.02-17.12-173.02-17.12l-4.33-259.61s-3.63-62.56-5.39-78.18c-.61-5.43-4.73-10.12-5.12-15.57-2.22-30.65-6.02-127.184-8.15-168.325-1.36-26.184-6.65-52.379-4.63-78.52 3.28-42.39 18.93-144.004 24.26-175.823.94-5.574 6.55-9.561 7.74-15.087 1.8-8.394.8-24.063 3.05-35.275 2.21-11.001 3.89-22.898 10.46-31.998 7.43-10.305 27.55-23.189 34.15-29.833 2.68-2.7 2.11-8.195 5.43-10.036 3.62-2 11.34.394 16.27-1.961Z"/></svg>